<?xml version="1.0" encoding="UTF-8"?> <svg xmlns="http://www.w3.org/2000/svg" width="15" height="14.348" viewBox="0 0 15 14.348"><path id="icons8-linkedin-2" d="M7.261,17.348H4V7.565H7.261ZM5.631,6.261A1.63,1.63,0,1,1,7.261,4.63,1.631,1.631,0,0,1,5.631,6.261ZM19,17.348H15.865V12.587c0-1.135-.022-2.6-1.63-2.6-1.632,0-1.883,1.237-1.883,2.513v4.843H9.217V7.558h3.009V8.9h.042a3.315,3.315,0,0,1,2.968-1.581C18.413,7.315,19,9.342,19,11.978,19,11.978,19,17.348,19,17.348Z" transform="translate(-4 -3)" fill="#fff"></path></svg> 