<?xml version="1.0" encoding="UTF-8"?> <svg xmlns="http://www.w3.org/2000/svg" width="18.459" height="15" viewBox="0 0 18.459 15"><path id="icons8-twitter" d="M20.458,6.212a7.56,7.56,0,0,1-2.175.6,3.793,3.793,0,0,0,1.665-2.095,7.593,7.593,0,0,1-2.405.919,3.788,3.788,0,0,0-6.55,2.591,3.829,3.829,0,0,0,.1.863A10.751,10.751,0,0,1,3.284,5.128a3.794,3.794,0,0,0,1.172,5.056,3.779,3.779,0,0,1-1.715-.474v.048a3.787,3.787,0,0,0,3.038,3.713,3.788,3.788,0,0,1-1,.133,3.856,3.856,0,0,1-.712-.067,3.792,3.792,0,0,0,3.538,2.63A7.641,7.641,0,0,1,2,17.735a10.721,10.721,0,0,0,5.805,1.7A10.7,10.7,0,0,0,18.578,8.661q0-.246-.011-.49A7.706,7.706,0,0,0,20.458,6.212Z" transform="translate(-1.999 -4.436)" fill="#fff"></path></svg> 