<?xml version="1.0" encoding="UTF-8"?> <!-- Generator: Adobe Illustrator 16.0.0, SVG Export Plug-In . SVG Version: 6.00 Build 0) --> <svg xmlns="http://www.w3.org/2000/svg" xmlns:xlink="http://www.w3.org/1999/xlink" version="1.1" id="Layer_1" x="0px" y="0px" width="52.938px" height="50.125px" viewBox="0 0 52.938 50.125" xml:space="preserve"> <path fill="#8ACB96" d="M47.018,13.188C40.453,1.096,25.328-3.384,13.237,3.182C1.145,9.747-3.335,24.871,3.23,36.963 c6.566,12.091,21.69,16.571,33.782,10.006c3.317-1.801,6.038-4.262,8.139-7.112l7.573-0.057l-4.276-6.034 C50.871,27.253,50.594,19.775,47.018,13.188"></path> <path fill="#FFFFFF" d="M25.103,44.087c10.43,0.094,18.957-8.355,19.046-18.871c0.09-10.516-8.293-19.117-18.723-19.21 C14.996,5.912,6.469,14.361,6.38,24.877C6.291,35.393,14.673,43.993,25.103,44.087"></path> <g> <defs> <path id="SVGID_1_" d="M6.379,24.877c-0.089,10.516,8.294,19.117,18.724,19.21c10.429,0.094,18.957-8.355,19.046-18.871 c0.09-10.516-8.293-19.117-18.723-19.21c-0.057-0.001-0.115-0.001-0.172-0.001C14.902,6.004,6.468,14.418,6.379,24.877"></path> </defs> <clipPath id="SVGID_2_"> <use xlink:href="#SVGID_1_" overflow="visible"></use> </clipPath> <path clip-path="url(#SVGID_2_)" fill="#078D9B" d="M11.649,28.854l-3.454-1.43l-0.391-1.536l-0.875-0.583l-0.72-1.227 l-0.676,0.388c-0.035,0.88-0.019,1.771,0.064,2.673c0.384,4.182,2.023,7.942,4.501,10.937l0.336-2.612l1.063-0.482l-0.177-3.094 l0.611-1.907L11.649,28.854z M19.438,8.26l-0.706,0.484l-0.068,0.426l1.222-0.707L19.438,8.26z M20.095,7.64l0.257,0.466 l-0.384,0.874l1.82-0.796L20.9,7.462L20.095,7.64z M24.813,7.661l0.751-0.768l0.557-0.155l1.809,0.253l-1.272,0.536L24.813,7.661z M29.759,9.792l0.352-0.836l0.94,0.123l0.363,0.456l0.493-0.08l0.184-0.331l1.425,1.126l-1.868-0.108l-1.085,0.24L29.759,9.792z M34.369,10.207l0.184-0.331l0.635-0.094l0.489,0.27l1.546,2.059l-1.358-0.4l-0.25-0.78L34.369,10.207z M23.277,6.894L23.683,7.8 L20.39,9.29l0.118,0.898l-2.016,0.604L18.28,12l1.269,0.198l1.553-0.597l0.065-0.845l2.686-1.085l2.392,1.143l0.231,0.572 l0.526-0.886l-2.14-1.131l0.447-0.181l1.883,0.665l0.936,1.242l0.798,0.136l-0.208-0.714l0.634-0.094l1.139,1.118l2.338,0.17 l0.062,1.462l-2.028,0.004l-2.148-0.669l-1.01,0.82l-2.918-0.654l0.188-0.745c0,0-0.646-0.499-2.722-0.085 c-2.077,0.415-4.119,1.832-4.382,2.387c-0.263,0.556-0.423,0.99-0.423,0.99l-2.257,2.806l0.313,1.229l-0.353,1.835l2.981,3.29 l5.099-1.272l2.526,1.06l-0.092,2.105l1.483,1.366l0.57,2.708l-0.614,2.257l2.982,6.015l0.583-0.648l2.277-0.488l1.777-2.434 l0.966-3.094l1.783-1.98l-0.566-3.826l2.367-3.782l0.232-2.536l-1.811,0.515l-4.707-6.135l0.544-0.295l4.403,5.151 c0,0,2.397-1.129,2.387-1.233c-0.009-0.104,0.143-1.166,0.143-1.166l-1.405-1.303l-0.741,0.103l-1.238-1.424l0.267-0.199 l1.528,1.083l2.63,1.016l1.222,1.634l1.702,4.525c0,0,0.141-0.031,0.142-0.055c-1.39-9.844-9.787-15.566-18.714-16.213 L23.277,6.894z M38.817,33.729l0.964-1.556l0.306-2.893l-0.286-0.393l-1.438,1.844l0.06,1.043l-0.368,0.662l0.092,1.39 L38.817,33.729z"></path> </g> </svg> 