<?xml version="1.0" encoding="UTF-8"?> <svg xmlns="http://www.w3.org/2000/svg" width="15.733" height="15.732" viewBox="0 0 15.733 15.732"><g id="icons8-instagram" transform="translate(-3 -3.858)"><path id="Path_487" data-name="Path 487" d="M14.362,3H7.37A4.375,4.375,0,0,0,3,7.37v6.992a4.375,4.375,0,0,0,4.37,4.37h6.992a4.375,4.375,0,0,0,4.37-4.37V7.37A4.375,4.375,0,0,0,14.362,3Zm2.622,11.362a2.625,2.625,0,0,1-2.622,2.622H7.37a2.625,2.625,0,0,1-2.622-2.622V7.37A2.625,2.625,0,0,1,7.37,4.748h6.992A2.625,2.625,0,0,1,16.985,7.37Z" transform="translate(0 0.858)" fill="#fff"></path><path id="Path_488" data-name="Path 488" d="M11.37,6.874a4.37,4.37,0,1,0,4.37,4.37A4.375,4.375,0,0,0,11.37,6.874Zm0,6.992a2.622,2.622,0,1,1,2.622-2.622A2.625,2.625,0,0,1,11.37,13.866ZM15.74,6a.874.874,0,1,0,.874.874A.874.874,0,0,0,15.74,6Z" transform="translate(-0.504 0.48)" fill="#fff"></path></g></svg> 