<?xml version="1.0" encoding="UTF-8"?> <svg xmlns="http://www.w3.org/2000/svg" xmlns:xlink="http://www.w3.org/1999/xlink" id="sh-logo-v3" width="221.633" height="49.836" viewBox="0 0 221.633 49.836"><defs><clipPath id="clip-path"><path id="Path_598" data-name="Path 598" d="M6.172,24.72A18.887,18.887,0,1,0,25.219,5.849h-.172A18.953,18.953,0,0,0,6.172,24.72"></path></clipPath></defs><path id="Path_595" data-name="Path 595" d="M46.812,13.031A24.98,24.98,0,1,0,44.944,39.7l7.572-.057-4.275-6.034a24.834,24.834,0,0,0-1.429-20.578" transform="translate(0.001 0)" fill="#89cb95"></path><path id="Path_596" data-name="Path 596" d="M24.9,43.93A19.042,19.042,0,1,0,6.173,24.72,18.952,18.952,0,0,0,24.9,43.93" transform="translate(0.001 0)" fill="#fff"></path><g id="Group_295" data-name="Group 295" transform="translate(0.001 0)"><g id="Group_294" data-name="Group 294" clip-path="url(#clip-path)"><path id="Path_597" data-name="Path 597" d="M11.442,28.7l-3.454-1.43L7.6,25.731l-.875-.583L6,23.921l-.676.389a20.486,20.486,0,0,0,.064,2.673,19.957,19.957,0,0,0,4.5,10.937l.336-2.612,1.063-.482-.177-3.094.611-1.907ZM19.23,8.1l-.706.484-.068.426,1.223-.707Zm.658-.621.258.466-.385.874,1.82-.8L20.693,7.3ZM24.6,7.5l.751-.768.557-.155,1.809.253L26.45,7.37Zm4.947,2.131.353-.836.94.123.363.456L31.7,9.3l.184-.331,1.426,1.126-1.868-.108-1.085.24Zm4.61.415.185-.331.635-.094.488.27,1.547,2.059-1.358-.4-.25-.78ZM23.07,6.736l.405.906-3.293,1.49.118.9-2.016.6-.211,1.208,1.27.2,1.553-.6.064-.845,2.687-1.085,2.392,1.143.231.572.526-.886L24.655,9.211,25.1,9.03l1.883.665.936,1.242.8.136-.209-.714.635-.094,1.139,1.118,2.338.17.063,1.462-2.028,0-2.147-.669-1.01.82-2.918-.654.188-.745s-.646-.5-2.723-.085-4.119,1.832-4.381,2.387-.424.99-.424.99l-2.257,2.806L15.3,19.1l-.354,1.835,2.98,3.29,5.1-1.272,2.525,1.06-.092,2.1,1.483,1.366.569,2.708L26.9,32.447l2.982,6.015.582-.648,2.277-.488,1.777-2.434.966-3.094,1.783-1.98L36.7,25.992l2.367-3.782.231-2.536-1.811.515-4.707-6.135.544-.3,4.4,5.151a24.94,24.94,0,0,0,2.387-1.233c-.009-.1.143-1.166.143-1.166l-1.4-1.3-.741.1-1.237-1.424.267-.2,1.528,1.083L41.3,15.787l1.223,1.634,1.7,4.525s.142-.031.143-.055C42.974,12.047,34.577,6.325,25.65,5.678ZM38.61,33.572l.964-1.556.306-2.893L39.6,28.73l-1.438,1.844.06,1.043-.367.662.092,1.39Z" fill="#008c9a"></path></g></g><path id="Path_599" data-name="Path 599" d="M185.127,36.626h2.846V35.9h-2.846V34.1h3.024v-.742h-3.868v6.032h4v-.75h-3.152v-2.01Zm-2.42-2.641a2.728,2.728,0,0,0-.941-.571,3.65,3.65,0,0,0-1.29-.213,3.485,3.485,0,0,0-1.278.23,3.064,3.064,0,0,0-1.018.643,2.894,2.894,0,0,0-.673,1,3.561,3.561,0,0,0,0,2.573,2.933,2.933,0,0,0,1.683,1.661,3.506,3.506,0,0,0,1.3.235,5.206,5.206,0,0,0,1.228-.137,4.321,4.321,0,0,0,1.038-.392V36.089h-2.172v.716h1.338v1.678a2.285,2.285,0,0,1-.622.222,3.748,3.748,0,0,1-.783.076,2.428,2.428,0,0,1-.972-.187,2.092,2.092,0,0,1-.732-.516,2.28,2.28,0,0,1-.46-.771,2.727,2.727,0,0,1-.162-.945,2.668,2.668,0,0,1,.162-.933,2.34,2.34,0,0,1,.46-.771,2.127,2.127,0,0,1,.724-.524,2.3,2.3,0,0,1,.954-.192,2.4,2.4,0,0,1,.942.179,1.954,1.954,0,0,1,.693.477Zm-10.7-.631h-1.1v6.032h.845V34.462h.017l3.186,4.924h1.065V33.354h-.843v4.822h-.018Zm-4.958.98,1.125,2.829h-2.259Zm-1.432,3.57h2.862l.614,1.482h.954l-2.591-6.032h-.767l-2.615,6.032h.938Zm-7.147,1.482h.843v-2.76h3.05v2.76h.853V33.354h-.853v2.522h-3.05V33.354h-.843Zm-1.619-1.4a1.8,1.8,0,0,1-.69.6,2.071,2.071,0,0,1-.929.205,2.292,2.292,0,0,1-.941-.188,2.079,2.079,0,0,1-.716-.515,2.313,2.313,0,0,1-.451-.771,2.849,2.849,0,0,1-.157-.954,2.668,2.668,0,0,1,.162-.933,2.34,2.34,0,0,1,.46-.771,2.131,2.131,0,0,1,.72-.524,2.271,2.271,0,0,1,.95-.192,1.949,1.949,0,0,1,.873.2,1.662,1.662,0,0,1,.626.507l.665-.511a1.94,1.94,0,0,0-.409-.4,2.5,2.5,0,0,0-.528-.293,3.024,3.024,0,0,0-.6-.179,3.316,3.316,0,0,0-.622-.06,3.481,3.481,0,0,0-1.278.23,3.064,3.064,0,0,0-1.018.643,2.924,2.924,0,0,0-.674,1,3.568,3.568,0,0,0,0,2.573,3.018,3.018,0,0,0,.66,1.005,2.963,2.963,0,0,0,1.005.656,3.4,3.4,0,0,0,1.274.235,2.892,2.892,0,0,0,1.372-.3,2.7,2.7,0,0,0,.928-.788Zm-10.1-4.635H145.9v6.032h3.535v-.75h-2.692Zm-3.654,5.985a2.1,2.1,0,0,0,.732-.532,2.2,2.2,0,0,0,.431-.763,2.834,2.834,0,0,0,.141-.89v-3.8h-.844V37.1a2.472,2.472,0,0,1-.076.609,1.554,1.554,0,0,1-.252.541,1.254,1.254,0,0,1-.464.383,1.808,1.808,0,0,1-1.419,0,1.265,1.265,0,0,1-.46-.383,1.553,1.553,0,0,1-.251-.541,2.427,2.427,0,0,1-.077-.609V33.354h-.844v3.8a2.863,2.863,0,0,0,.141.89,2.188,2.188,0,0,0,.431.763,2.114,2.114,0,0,0,.732.532,2.5,2.5,0,0,0,1.04.2,2.467,2.467,0,0,0,1.039-.2m-7.42-2.645H138.4V35.97h-2.733V34.1h2.922v-.742h-3.767v6.032h.845Zm-2.42-2.709a2.737,2.737,0,0,0-.941-.571,3.652,3.652,0,0,0-1.291-.213,3.485,3.485,0,0,0-1.278.23,3.075,3.075,0,0,0-1.018.643,2.922,2.922,0,0,0-.673,1,3.554,3.554,0,0,0,0,2.573,2.935,2.935,0,0,0,1.682,1.661,3.506,3.506,0,0,0,1.3.235,5.2,5.2,0,0,0,1.228-.137,4.352,4.352,0,0,0,1.04-.392V36.089h-2.174v.716h1.338v1.678a2.277,2.277,0,0,1-.621.222,3.758,3.758,0,0,1-.784.076,2.428,2.428,0,0,1-.972-.187,2.092,2.092,0,0,1-.732-.516,2.28,2.28,0,0,1-.46-.771,2.727,2.727,0,0,1-.162-.945,2.668,2.668,0,0,1,.162-.933,2.34,2.34,0,0,1,.46-.771,2.127,2.127,0,0,1,.724-.524,2.3,2.3,0,0,1,.954-.192,2.393,2.393,0,0,1,.942.179,1.954,1.954,0,0,1,.693.477Zm-10.7-.631h-1.1v6.032h.844V34.462h.017l3.186,4.924h1.065V33.354h-.843v4.822H125.7Zm-2.651,0h-.843v6.032h.843Zm-6.407,0h-1.1v6.032h.844V34.462h.018l3.186,4.924h1.065V33.354h-.844v4.822h-.017Zm-4.958.98,1.125,2.829H107.4Zm-1.431,3.57h2.862l.613,1.482h.954l-2.59-6.032h-.767l-2.615,6.032h.937Zm-5.213-1.278h2.845V35.9h-2.845V34.1h3.023v-.742h-3.867v6.032h4v-.75h-3.151v-2.01Zm-7.311-3.272H93.27v6.032h.818V34.343H94.1L96.1,39.386h.537l2-5.043h.017v5.043H99.5V33.354H98.186L96.4,37.989h-.017Zm-7.889,3.272h2.845V35.9H86.692V34.1h3.024v-.742H85.848v6.032h4v-.75H86.692v-2.01ZM83.029,34.1h1.935v-.742H80.252V34.1h1.934v5.29h.844V34.1Zm-5.461.237,1.124,2.829H76.434ZM76.137,37.9H79l.613,1.482h.954l-2.59-6.032H77.21l-2.616,6.032h.937Zm-5.214-1.278h2.846V35.9H70.923V34.1h3.024v-.742H70.079v6.032h4v-.75H70.923ZM65.606,34.07h1.031a2.817,2.817,0,0,1,.52.047,1.311,1.311,0,0,1,.431.157.875.875,0,0,1-.01,1.5,1.365,1.365,0,0,1-.446.166,2.832,2.832,0,0,1-.555.051h-.971V34.07Zm0,2.634h.9l1.533,2.683h1.022l-1.687-2.769a1.906,1.906,0,0,0,1.057-.519,1.46,1.46,0,0,0,.409-1.074,1.643,1.643,0,0,0-.171-.779,1.41,1.41,0,0,0-.465-.516,2.039,2.039,0,0,0-.686-.285,3.682,3.682,0,0,0-.826-.09H64.761v6.032H65.6V36.7Zm-2.461,1.285a1.8,1.8,0,0,1-.69.6,2.071,2.071,0,0,1-.929.205,2.284,2.284,0,0,1-.94-.188,2.073,2.073,0,0,1-.717-.515,2.313,2.313,0,0,1-.451-.771,2.85,2.85,0,0,1-.158-.954,2.691,2.691,0,0,1,.162-.933,2.359,2.359,0,0,1,.461-.771,2.14,2.14,0,0,1,.72-.524,2.264,2.264,0,0,1,.95-.192,1.949,1.949,0,0,1,.873.2,1.651,1.651,0,0,1,.625.507l.666-.511a1.94,1.94,0,0,0-.409-.4,2.5,2.5,0,0,0-.528-.293,3.014,3.014,0,0,0-.6-.179,3.314,3.314,0,0,0-.621-.06,3.477,3.477,0,0,0-1.278.23,3.079,3.079,0,0,0-1.019.643,2.919,2.919,0,0,0-.672,1,3.541,3.541,0,0,0,0,2.573,3,3,0,0,0,.659,1.005,2.963,2.963,0,0,0,1.005.656,3.393,3.393,0,0,0,1.274.235,2.886,2.886,0,0,0,1.371-.3,2.7,2.7,0,0,0,.929-.788Z" transform="translate(0.001 0)" fill="#4e595c"></path><path id="Path_600" data-name="Path 600" d="M221.632,27.967V26.054H217.32V24.127h3.853v-1.8H217.32V20.575H221.4V18.688h-6.238v9.279ZM211.06,22.109a.993.993,0,0,1-.388.34,1.785,1.785,0,0,1-.527.164,3.556,3.556,0,0,1-.565.046h-1.067V20.5h1.2a3.514,3.514,0,0,1,.521.04,1.534,1.534,0,0,1,.487.15.945.945,0,0,1,.355.315.923.923,0,0,1,.139.531,1.016,1.016,0,0,1-.153.577m2.865,5.858L211.5,24a2.788,2.788,0,0,0,1.416-.918,2.463,2.463,0,0,0,.511-1.585,2.712,2.712,0,0,0-.3-1.337,2.43,2.43,0,0,0-.807-.865,3.392,3.392,0,0,0-1.141-.466,6.12,6.12,0,0,0-1.3-.137h-3.539v9.279h2.189V24.284h.764l2.015,3.683h2.622Zm-9.2,0V26.054h-4.312V24.127h3.853v-1.8h-3.853V20.575h4.076V18.688h-6.239v9.279Zm-8.519,0V18.688h-2.242V22.2h-3.617V18.688H188.1v9.279h2.242V24.088h3.617v3.879ZM184.251,22.1a.986.986,0,0,1-.361.347,1.6,1.6,0,0,1-.517.184,3.378,3.378,0,0,1-.6.052h-.943V20.5h.982a4.085,4.085,0,0,1,.583.04,1.509,1.509,0,0,1,.505.157.91.91,0,0,1,.354.328,1,1,0,0,1,.131.537,1.027,1.027,0,0,1-.13.544m2.091-1.9a2.362,2.362,0,0,0-.773-.878,3.371,3.371,0,0,0-1.153-.485,6.435,6.435,0,0,0-1.422-.15h-3.408v9.279h2.241v-3.5h1.113a6.115,6.115,0,0,0,1.391-.157,3.578,3.578,0,0,0,1.179-.5,2.475,2.475,0,0,0,.813-.9,2.849,2.849,0,0,0,.3-1.37,2.924,2.924,0,0,0-.282-1.344m-8.3-.609a4.125,4.125,0,0,0-1.436-.852,4.819,4.819,0,0,0-1.6-.288,5.235,5.235,0,0,0-1.3.163,3.545,3.545,0,0,0-1.153.518,2.728,2.728,0,0,0-.826.905,2.622,2.622,0,0,0-.314,1.323,2.527,2.527,0,0,0,.2,1.069,2.335,2.335,0,0,0,.537.747,2.946,2.946,0,0,0,.761.5,7.685,7.685,0,0,0,.872.341q.457.144.818.269a3.092,3.092,0,0,1,.6.275,1.293,1.293,0,0,1,.373.334.751.751,0,0,1,.131.446.991.991,0,0,1-.1.472.843.843,0,0,1-.28.314,1.216,1.216,0,0,1-.413.171,2.231,2.231,0,0,1-.485.052,2.439,2.439,0,0,1-1.108-.282,2.7,2.7,0,0,1-.9-.7l-1.468,1.494a4.066,4.066,0,0,0,1.547.99,5.479,5.479,0,0,0,1.927.347,4.81,4.81,0,0,0,1.324-.183,3.381,3.381,0,0,0,1.14-.564,2.756,2.756,0,0,0,.793-.963,3.027,3.027,0,0,0,.295-1.383,2.261,2.261,0,0,0-.274-1.16,2.687,2.687,0,0,0-.7-.78,3.649,3.649,0,0,0-.931-.5q-.51-.191-.983-.348c-.218-.07-.415-.137-.59-.2a2.613,2.613,0,0,1-.452-.216.877.877,0,0,1-.288-.275.735.735,0,0,1-.1-.394.768.768,0,0,1,.124-.452,1.019,1.019,0,0,1,.308-.288,1.167,1.167,0,0,1,.413-.151,2.7,2.7,0,0,1,.452-.039,2.119,2.119,0,0,1,.9.216,2.032,2.032,0,0,1,.755.583Zm-8.375-.9h-2.254v9.28h2.254Zm-4.286,9.279V18.688h-3.241l-2.021,5.95h-.054l-2.112-5.95h-3.188v9.279h2.11l-.053-6.566h.039l2.347,6.566h1.573l2.41-6.566h.04l-.053,6.566Zm-12.229,0V26.054h-4.313V24.127h3.854v-1.8h-3.854V20.575h4.076V18.688h-6.238v9.279Zm-8.519,0V18.688h-2.241V22.2H138.77V18.688h-2.24v9.279h2.24V24.088h3.618v3.879Zm-13.553,0V18.688H128.9l.052,6.055h-.039l-3.723-6.055h-2.557v9.279h2.176l-.052-6.068h.039l3.736,6.068Zm-12.537-5.858a1.01,1.01,0,0,1-.389.34,1.776,1.776,0,0,1-.527.164,3.568,3.568,0,0,1-.566.046h-1.066V20.5h1.2a3.524,3.524,0,0,1,.521.04,1.55,1.55,0,0,1,.487.15.945.945,0,0,1,.355.315.93.93,0,0,1,.138.531,1.015,1.015,0,0,1-.151.577m2.864,5.858L118.978,24a2.781,2.781,0,0,0,1.415-.918,2.457,2.457,0,0,0,.512-1.585,2.7,2.7,0,0,0-.3-1.337,2.418,2.418,0,0,0-.806-.865,3.392,3.392,0,0,0-1.141-.466,6.123,6.123,0,0,0-1.305-.137h-3.539v9.279H116V24.284h.764l2.016,3.683H121.4Zm-9.2,0V26.054h-4.313V24.127h3.854v-1.8h-3.854V20.575h4.076V18.688h-6.239v9.279Zm-8.519,0V18.688h-2.24V22.2H97.825V18.688H95.584v9.279h2.241V24.088h3.618v3.879ZM94.429,20.6V18.688H86.946V20.6h2.622v7.366h2.24V20.6h2.621ZM85.9,24.468v-5.78h-2.24v5.6a2.724,2.724,0,0,1-.093.721,1.67,1.67,0,0,1-.3.61,1.466,1.466,0,0,1-.544.426,2.15,2.15,0,0,1-1.613,0,1.4,1.4,0,0,1-.536-.426,1.846,1.846,0,0,1-.3-.61,2.643,2.643,0,0,1-.1-.721v-5.6H77.939v5.78A4.109,4.109,0,0,0,78.213,26,3.337,3.337,0,0,0,79,27.174a3.562,3.562,0,0,0,1.245.767,5.075,5.075,0,0,0,3.3,0,3.707,3.707,0,0,0,1.265-.767A3.319,3.319,0,0,0,85.613,26a3.956,3.956,0,0,0,.283-1.527m-12.071-.02a2.682,2.682,0,0,1-.55.911,2.551,2.551,0,0,1-.84.6,2.769,2.769,0,0,1-2.149,0,2.458,2.458,0,0,1-.832-.6,2.734,2.734,0,0,1-.544-.911,3.315,3.315,0,0,1-.2-1.16,3.276,3.276,0,0,1,.19-1.127,2.545,2.545,0,0,1,.544-.9,2.579,2.579,0,0,1,.838-.59,2.617,2.617,0,0,1,1.075-.216,2.655,2.655,0,0,1,1.081.216,2.521,2.521,0,0,1,.839.59,2.683,2.683,0,0,1,.544.9,3.186,3.186,0,0,1,.2,1.127,3.315,3.315,0,0,1-.2,1.16m2.215-3.172a4.41,4.41,0,0,0-1.055-1.527,4.709,4.709,0,0,0-1.605-.97,6.147,6.147,0,0,0-4.032,0,4.74,4.74,0,0,0-1.6.97,4.41,4.41,0,0,0-1.055,1.527,5.107,5.107,0,0,0-.381,2.012,5.164,5.164,0,0,0,.381,2.012,4.56,4.56,0,0,0,1.055,1.56,4.718,4.718,0,0,0,1.6,1,5.6,5.6,0,0,0,2.013.353,5.663,5.663,0,0,0,2.019-.353,4.705,4.705,0,0,0,1.605-1A4.588,4.588,0,0,0,76.04,25.3a5.163,5.163,0,0,0,.38-2.012,5.107,5.107,0,0,0-.38-2.012M65.2,19.592a4.139,4.139,0,0,0-1.435-.852,4.83,4.83,0,0,0-1.606-.288,5.247,5.247,0,0,0-1.3.163,3.554,3.554,0,0,0-1.153.518,2.749,2.749,0,0,0-.826.905,2.632,2.632,0,0,0-.313,1.323,2.512,2.512,0,0,0,.2,1.069,2.319,2.319,0,0,0,.537.747,2.941,2.941,0,0,0,.76.5,7.744,7.744,0,0,0,.871.341q.46.144.819.269a3,3,0,0,1,.6.275,1.3,1.3,0,0,1,.375.334.758.758,0,0,1,.131.446.991.991,0,0,1-.1.472.854.854,0,0,1-.281.314,1.213,1.213,0,0,1-.414.171,2.209,2.209,0,0,1-.484.052,2.432,2.432,0,0,1-1.107-.282,2.684,2.684,0,0,1-.9-.7l-1.468,1.494a4.058,4.058,0,0,0,1.547.99,5.469,5.469,0,0,0,1.926.347,4.8,4.8,0,0,0,1.324-.183,3.4,3.4,0,0,0,1.141-.564,2.756,2.756,0,0,0,.793-.963,3.04,3.04,0,0,0,.294-1.383,2.251,2.251,0,0,0-.274-1.16,2.669,2.669,0,0,0-.694-.78,3.649,3.649,0,0,0-.931-.5q-.513-.191-.983-.348c-.22-.07-.415-.137-.59-.2a2.544,2.544,0,0,1-.452-.216.877.877,0,0,1-.288-.275.736.736,0,0,1-.1-.394.761.761,0,0,1,.125-.452,1,1,0,0,1,.308-.288,1.174,1.174,0,0,1,.413-.151,2.68,2.68,0,0,1,.452-.039,2.125,2.125,0,0,1,.9.216,2.029,2.029,0,0,1,.754.583Z" transform="translate(0.001 0)" fill="#4e595c"></path></svg> 