<?xml version="1.0" encoding="UTF-8"?> <svg xmlns="http://www.w3.org/2000/svg" id="Component_13_1" data-name="Component 13 – 1" width="105" height="105" viewBox="0 0 105 105"><g id="Ellipse_39" data-name="Ellipse 39" fill="#fff" stroke="#ce97c4" stroke-width="10"><circle cx="52.5" cy="52.5" r="52.5" stroke="none"></circle><circle cx="52.5" cy="52.5" r="47.5" fill="none"></circle></g><g id="monitoring" transform="translate(17.283 13.167)"><path id="Path_117" data-name="Path 117" d="M65.268,22.647H39.182V58.883H69.651V26.723Z" transform="translate(-19.912 -8.814)" fill="#cd96c3"></path><path id="Path_118" data-name="Path 118" d="M68.528,36.686H48.4a.468.468,0,1,1,0-.936H68.528a.468.468,0,0,1,0,.936Z" transform="translate(-22.788 -14.876)" fill="#4c5052"></path><path id="Path_119" data-name="Path 119" d="M68.528,42.752H48.4a.468.468,0,1,1,0-.936H68.528a.468.468,0,0,1,0,.936Z" transform="translate(-22.788 -18.223)" fill="#4c5052"></path><path id="Path_120" data-name="Path 120" d="M62.229,48.818H48.4a.468.468,0,1,1,0-.936H62.229a.468.468,0,0,1,0,.936Z" transform="translate(-22.486 -21.201)" fill="#4c5052"></path><path id="Path_121" data-name="Path 121" d="M62.229,54.884H48.4a.468.468,0,1,1,0-.936H62.229a.468.468,0,1,1,0,.936Z" transform="translate(-22.486 -24.179)" fill="#4c5052"></path><path id="Path_122" data-name="Path 122" d="M56.334,60.949H48.4a.468.468,0,1,1,0-.936h7.938a.468.468,0,1,1,0,.936Z" transform="translate(-22.286 -27.156)" fill="#4c5052"></path><path id="Path_123" data-name="Path 123" d="M87.748,22.647l4.37,4.03H87.991Z" transform="translate(-42.38 -8.814)" fill="#e7d1e5"></path><path id="Path_124" data-name="Path 124" d="M78.8,46.141H52.716V82.378H83.185V50.217Z" transform="translate(-26.173 -22.541)" fill="#88ca94"></path><path id="Path_125" data-name="Path 125" d="M82.063,60.18H61.93a.468.468,0,1,1,0-.936H82.062a.468.468,0,0,1,0,.936Z" transform="translate(-30.219 -26.778)" fill="#008b99"></path><path id="Path_126" data-name="Path 126" d="M82.063,66.246H61.93a.468.468,0,1,1,0-.936H82.062a.468.468,0,0,1,0,.936Z" transform="translate(-30.219 -29.756)" fill="#008b99"></path><path id="Path_127" data-name="Path 127" d="M75.763,72.312H61.93a.468.468,0,1,1,0-.936H75.763a.468.468,0,0,1,0,.936Z" transform="translate(-29.333 -32.733)" fill="#008b99"></path><path id="Path_128" data-name="Path 128" d="M75.763,78.378H61.93a.468.468,0,1,1,0-.936H75.763a.468.468,0,1,1,0,.936Z" transform="translate(-29.333 -35.711)" fill="#008b99"></path><path id="Path_129" data-name="Path 129" d="M69.308,84.484h-7.63a.762.762,0,0,1,0-1.524h7.63a.762.762,0,0,1,0,1.524Z" transform="translate(-28.789 -38.438)" fill="#008b99"></path><line id="Line_3" data-name="Line 3" x2="7.63" transform="translate(32.898 42.201)" fill="none" stroke="#008b99" stroke-linecap="round" stroke-linejoin="round" stroke-width="2.835"></line><line id="Line_4" data-name="Line 4" x2="4.545" transform="translate(33.012 39.11)" fill="none" stroke="#008b99" stroke-linecap="round" stroke-linejoin="round" stroke-width="2.835"></line><path id="Path_130" data-name="Path 130" d="M101.282,46.141l4.37,4.03h-4.128Z" transform="translate(-48.641 -20.386)" fill="#cde7d0"></path><path id="Path_131" data-name="Path 131" d="M44.416,80.84a8.154,8.154,0,1,1,.45-11.471,8.118,8.118,0,0,1-.45,11.471m2.2,2.4a11.409,11.409,0,1,0-17.345-2.5L15.494,93.364a1.147,1.147,0,0,0-.065,1.658l1.314,1.436a1.153,1.153,0,0,0,1.659.08L32.178,83.914a11.331,11.331,0,0,0,14.437-.675" transform="translate(-5.874 -30.556)" fill="#4e595c"></path></g></svg> 