<?xml version="1.0" encoding="UTF-8"?> <svg xmlns="http://www.w3.org/2000/svg" id="Component_12_1" data-name="Component 12 – 1" width="105" height="105" viewBox="0 0 105 105"><g id="Ellipse_38" data-name="Ellipse 38" fill="#fff" stroke="#fabbb2" stroke-width="10"><circle cx="52.5" cy="52.5" r="52.5" stroke="none"></circle><circle cx="52.5" cy="52.5" r="47.5" fill="none"></circle></g><g id="program-design" transform="translate(12.178 12.388)"><rect id="Rectangle_128" data-name="Rectangle 128" width="25.379" height="18.51" transform="translate(27.632 6.351)" fill="#88ca94"></rect><path id="Path_94" data-name="Path 94" d="M71.091,17.384h-18.7a.334.334,0,1,1,0-.667h18.7a.334.334,0,1,1,0,.667Z" transform="translate(-21.056 -6.502)" fill="#4c5052"></path><path id="Path_95" data-name="Path 95" d="M71.091,21.19h-18.7a.334.334,0,1,1,0-.667h18.7a.334.334,0,1,1,0,.667Z" transform="translate(-21.056 -7.982)" fill="#4c5052"></path><path id="Path_96" data-name="Path 96" d="M65.3,25H52.392a.334.334,0,1,1,0-.667H65.3a.334.334,0,1,1,0,.667Z" transform="translate(-20.947 -9.462)" fill="#4c5052"></path><path id="Path_97" data-name="Path 97" d="M65.3,28.8H52.392a.334.334,0,1,1,0-.667H65.3a.334.334,0,1,1,0,.667Z" transform="translate(-20.947 -10.942)" fill="#4c5052"></path><path id="Path_98" data-name="Path 98" d="M59.88,32.607H52.392a.334.334,0,1,1,0-.667h7.489a.334.334,0,1,1,0,.667Z" transform="translate(-20.869 -12.758)" fill="#4c5052"></path><rect id="Rectangle_129" data-name="Rectangle 129" width="22.113" height="16.127" transform="translate(12.822 48.965)" fill="#cd96c3"></rect><path id="Path_99" data-name="Path 99" d="M42.394,89.958H26.1a.291.291,0,0,1,0-.583H42.395a.291.291,0,0,1,0,.583Z" transform="translate(-10.038 -36.279)" fill="#4c5052"></path><path id="Path_100" data-name="Path 100" d="M37.348,93.275H26.1a.291.291,0,0,1,0-.583H37.348a.291.291,0,0,1,0,.583Z" transform="translate(-10.038 -37.57)" fill="#4c5052"></path><path id="Path_101" data-name="Path 101" d="M37.348,96.591H26.1a.291.291,0,0,1,0-.583H37.348a.291.291,0,0,1,0,.583Z" transform="translate(-10.038 -38.859)" fill="#4c5052"></path><path id="Path_102" data-name="Path 102" d="M32.626,99.906H26.1a.291.291,0,1,1,0-.582h6.526a.291.291,0,1,1,0,.582Z" transform="translate(-10.038 -40.149)" fill="#4c5052"></path><rect id="Rectangle_130" data-name="Rectangle 130" width="22.113" height="16.127" transform="translate(45.708 48.965)" fill="#cd96c3"></rect><path id="Path_103" data-name="Path 103" d="M98.808,89.958H82.514a.291.291,0,0,1,0-.583H98.808a.291.291,0,0,1,0,.583Z" transform="translate(-33.565 -36.279)" fill="#4c5052"></path><path id="Path_104" data-name="Path 104" d="M93.761,93.275H82.514a.291.291,0,0,1,0-.583H93.761a.291.291,0,0,1,0,.583Z" transform="translate(-33.565 -37.57)" fill="#4c5052"></path><path id="Path_105" data-name="Path 105" d="M93.761,96.591H82.514a.291.291,0,0,1,0-.583H93.761a.291.291,0,0,1,0,.583Z" transform="translate(-33.565 -38.859)" fill="#4c5052"></path><path id="Path_106" data-name="Path 106" d="M89.04,99.906H82.514a.291.291,0,1,1,0-.582H89.04a.291.291,0,1,1,0,.582Z" transform="translate(-33.178 -40.149)" fill="#4c5052"></path><rect id="Rectangle_131" data-name="Rectangle 131" width="13.957" height="10.179" transform="translate(33.776 33.967)" fill="#f9bab1"></rect><path id="Path_107" data-name="Path 107" d="M69.987,62.115H59.954a.309.309,0,0,1,0-.618H69.987a.309.309,0,0,1,0,.618Z" transform="translate(-24.013 -24.713)" fill="#4c5052"></path><path id="Path_108" data-name="Path 108" d="M66.8,64.977H59.954a.309.309,0,0,1,0-.618H66.8a.309.309,0,1,1,0,.618Z" transform="translate(-23.96 -25.871)" fill="#4c5052"></path><path id="Path_109" data-name="Path 109" d="M63.821,67.844H59.953a.309.309,0,1,1,0-.618h3.868a.309.309,0,1,1,0,.618Z" transform="translate(-23.916 -27.03)" fill="#4c5052"></path><path id="Path_110" data-name="Path 110" d="M88.518,63.334H83.3v-.861l-1.846,1.7,1.846,1.7V65.1h5.216c2.031,0,3.181.115,3.181,2.474v4.859h1.767V67.574C93.465,63.334,90.247,63.334,88.518,63.334Z" transform="translate(-33.267 -25.259)" fill="#4c5052"></path><path id="Path_111" data-name="Path 111" d="M67.9,44.516,66.2,42.67l-1.7,1.846h.862v5.217h1.767V44.516Z" transform="translate(-25.878 -17.159)" fill="#4c5052"></path><path id="Path_112" data-name="Path 112" d="M68.943,93.809l-1.846-1.7v.774H61.651v-.774l-1.846,1.7,1.846,1.7v-.862H67.1v.862Z" transform="translate(-24.053 -37.342)" fill="#4c5052"></path><path id="Path_113" data-name="Path 113" d="M44.9,64.174l-1.846-1.7v.861H37.835c-1.729,0-4.947,0-4.947,4.24v4.859h1.767V67.574c0-2.359,1.149-2.474,3.181-2.474h5.217v.773Z" transform="translate(-12.791 -25.259)" fill="#4c5052"></path></g></svg> 