<?xml version="1.0" encoding="UTF-8"?> <svg xmlns="http://www.w3.org/2000/svg" id="Component_14_1" data-name="Component 14 – 1" width="105" height="105" viewBox="0 0 105 105"><g id="Ellipse_40" data-name="Ellipse 40" fill="#fff" stroke="#ffd798" stroke-width="10"><circle cx="52.5" cy="52.5" r="52.5" stroke="none"></circle><circle cx="52.5" cy="52.5" r="47.5" fill="none"></circle></g><g id="training" transform="translate(14.254 13.184)"><path id="Path_133" data-name="Path 133" d="M25.539,61.295l1.493,12.013H69.14l2.2-11.95Z" transform="translate(-9.688 -26.972)" fill="#4e595c"></path><g id="Group_50" data-name="Group 50" transform="translate(15.851 28.572)"><path id="Path_134" data-name="Path 134" d="M71.34,56.978V55.21s0-4.125-4.125-4.125H29.663s-4.124,0-4.124,4.125v1.768h45.8Z" transform="translate(-25.539 -51.085)" fill="#008b99"></path><path id="Path_135" data-name="Path 135" d="M54.3,67.538a4.809,4.809,0,1,0-7.667,5,11.181,11.181,0,0,1,2.657,3.885L49.7,77.91a.572.572,0,0,0,.817.563c.4-.108.893-.243,1.3-.353l.77-.21,1.3-.354a.573.573,0,0,0,.419-.9L53.9,75.164c-.52-1.907.469-5.274.469-5.274l-.016,0a4.781,4.781,0,0,0-.045-2.353" transform="translate(-33.975 -56.722)" fill="#ffd797"></path><path id="Path_136" data-name="Path 136" d="M59.03,89.11l-.228-.834-4.686,1.279.228.833.239-.065a1.942,1.942,0,0,0,2.5.894,1.917,1.917,0,0,0,1.662-2.03Z" transform="translate(-38.019 -67.327)" fill="#cd96c3"></path><path id="Path_137" data-name="Path 137" d="M48.426,66.65s-1.751.982-1.308,3.764,2.664,3.753,3.1,4.645A12.009,12.009,0,0,1,50.9,76.89s.365-.05.231-.542a5.416,5.416,0,0,0-1.186-2.731c-1.062-1.35-2.233-2.86-2.048-4.614a6.8,6.8,0,0,1,.527-2.352" transform="translate(-34.932 -57.883)" fill="#fff"></path></g><path id="Path_138" data-name="Path 138" d="M50,60.44a.456.456,0,0,1-.44-.336l-.627-2.3a.456.456,0,1,1,.88-.24l.628,2.3a.456.456,0,0,1-.321.56A.465.465,0,0,1,50,60.44Z" transform="translate(-19.896 -25.195)" fill="#ffd797"></path><path id="Path_139" data-name="Path 139" d="M55.118,60.561a.4.4,0,0,1-.086-.008.457.457,0,0,1-.363-.533l.446-2.344a.457.457,0,0,1,.9.17l-.446,2.344A.456.456,0,0,1,55.118,60.561Z" transform="translate(-22.406 -25.229)" fill="#ffd797"></path><path id="Path_140" data-name="Path 140" d="M44.681,63.5a.456.456,0,0,1-.344-.155l-1.573-1.795a.457.457,0,1,1,.687-.6l1.573,1.795a.457.457,0,0,1-.342.758Z" transform="translate(-17.161 -26.753)" fill="#ffd797"></path><path id="Path_141" data-name="Path 141" d="M59.21,62.642a.456.456,0,0,1-.377-.713l1.343-1.972a.457.457,0,0,1,.755.514l-1.343,1.973A.457.457,0,0,1,59.21,62.642Z" transform="translate(-24.194 -26.301)" fill="#ffd797"></path><path id="Path_142" data-name="Path 142" d="M41.609,67.723a.444.444,0,0,1-.194-.044l-2.158-1.017a.457.457,0,0,1,.389-.826L41.8,66.854a.457.457,0,0,1-.195.87Z" transform="translate(-15.564 -28.936)" fill="#ffd797"></path><path id="Path_143" data-name="Path 143" d="M62.354,67.285a.457.457,0,0,1-.224-.855l2.082-1.166a.457.457,0,0,1,.446.8l-2.082,1.166A.448.448,0,0,1,62.354,67.285Z" transform="translate(-25.566 -28.68)" fill="#ffd797"></path><path id="Path_144" data-name="Path 144" d="M38.377,73.623a.456.456,0,0,1-.01-.913l2.385-.053h.01a.457.457,0,0,1,.01.913l-2.385.052Z" transform="translate(-15.095 -31.935)" fill="#ffd797"></path><g id="Group_51" data-name="Group 51" transform="translate(45.21 24.965)"><path id="Path_145" data-name="Path 145" d="M87.233,50.16a4.809,4.809,0,1,0-9.017,1.564,11.154,11.154,0,0,1,.906,4.619c-.274,1.957-.215,1.531-.215,1.531a.573.573,0,0,0,.528.84l1.333.187.79.112,1.333.187c.856.121.739-.663.739-.663s-.06.426.216-1.53,2.513-4.661,2.513-4.661l-.016,0a4.772,4.772,0,0,0,.889-2.18" transform="translate(-77.661 -44.681)" fill="#f9bab1"></path><path id="Path_146" data-name="Path 146" d="M84.349,71.587l.12-.856-4.81-.676-.12.857.245.035c.016.367.2,1.565,1.948,1.81a1.917,1.917,0,0,0,2.328-1.209Z" transform="translate(-78.481 -55.763)" fill="#88ca94"></path><path id="Path_147" data-name="Path 147" d="M82.726,46.277s-2,.211-2.687,2.943.966,4.5,1.011,5.489a11.94,11.94,0,0,1-.09,1.955s.355.1.426-.408a5.417,5.417,0,0,0-.012-2.976c-.443-1.661-.923-3.51-.06-5.049a6.807,6.807,0,0,1,1.412-1.953" transform="translate(-78.626 -45.378)" fill="#fff"></path></g><path id="Path_148" data-name="Path 148" d="M87.6,40.916a.4.4,0,0,1-.064,0,.455.455,0,0,1-.389-.515l.332-2.363a.456.456,0,0,1,.9.127l-.332,2.363A.456.456,0,0,1,87.6,40.916Z" transform="translate(-36.594 -16.641)" fill="#f9bab1"></path><path id="Path_149" data-name="Path 149" d="M91.8,43.186a.456.456,0,0,1-.377-.711L92.757,40.5a.457.457,0,0,1,.757.511l-1.334,1.978A.457.457,0,0,1,91.8,43.186Z" transform="translate(-38.427 -17.801)" fill="#f9bab1"></path><path id="Path_150" data-name="Path 150" d="M81.769,41.631a.457.457,0,0,1-.434-.315l-.737-2.27a.457.457,0,0,1,.869-.282l.737,2.27a.457.457,0,0,1-.293.575A.477.477,0,0,1,81.769,41.631Z" transform="translate(-33.724 -16.995)" fill="#f9bab1"></path><path id="Path_151" data-name="Path 151" d="M94.856,46.988a.457.457,0,0,1-.246-.842l2.012-1.283a.457.457,0,0,1,.491.77L95.1,46.916A.445.445,0,0,1,94.856,46.988Z" transform="translate(-39.761 -19.765)" fill="#f9bab1"></path><path id="Path_152" data-name="Path 152" d="M77.281,44.3a.456.456,0,0,1-.342-.154l-1.581-1.787a.457.457,0,0,1,.684-.6l1.581,1.787a.456.456,0,0,1-.342.759Z" transform="translate(-31.395 -18.371)" fill="#f9bab1"></path><path id="Path_153" data-name="Path 153" d="M96.157,52.722a.457.457,0,0,1-.047-.911l2.374-.25a.457.457,0,1,1,.095.909l-2.372.25Z" transform="translate(-40.329 -22.72)" fill="#f9bab1"></path><path id="Path_154" data-name="Path 154" d="M74.181,49.373a.46.46,0,0,1-.171-.033L71.8,48.446a.457.457,0,0,1,.342-.847l2.213.893a.457.457,0,0,1-.171.88Z" transform="translate(-29.766 -20.976)" fill="#f9bab1"></path><g id="Group_52" data-name="Group 52" transform="translate(31.388 9.014)"><path id="Path_155" data-name="Path 155" d="M62.735,20.963a4.809,4.809,0,1,0-8.58,3.18,11.178,11.178,0,0,1,1.734,4.376c.087,1.974.068,1.545.068,1.545s-.19.767.673.729l1.344-.059.8-.035,1.344-.059c.863-.038.607-.786.607-.786s.019.429-.068-1.544,1.621-5.041,1.621-5.041h-.016a4.79,4.79,0,0,0,.475-2.3" transform="translate(-53.122 -16.364)" fill="#88ca94"></path><path id="Path_156" data-name="Path 156" d="M63.278,43.117l-.038-.863-4.853.211.038.864.247-.011a1.941,1.941,0,0,0,2.245,1.425,1.917,1.917,0,0,0,2.069-1.613Z" transform="translate(-55.422 -27.671)" fill="#cd96c3"></path><path id="Path_157" data-name="Path 157" d="M57.512,18.3s-1.925.572-2.107,3.382,1.77,4.249,2,5.213a12.04,12.04,0,0,1,.267,1.938s.367.032.345-.479a5.414,5.414,0,0,0-.554-2.924c-.738-1.552-1.547-3.284-.979-4.953A6.794,6.794,0,0,1,57.512,18.3" transform="translate(-54.114 -17.211)" fill="#fff"></path></g><path id="Path_158" data-name="Path 158" d="M61.026,12.438A.456.456,0,0,1,60.57,12l-.1-2.384a.456.456,0,0,1,.436-.476.449.449,0,0,1,.476.435l.1,2.384a.456.456,0,0,1-.436.476Z" transform="translate(-24.941 -4.195)" fill="#88ca94"></path><path id="Path_159" data-name="Path 159" d="M65.593,13.762a.456.456,0,0,1-.418-.638l.951-2.188a.457.457,0,0,1,.838.364l-.951,2.188A.458.458,0,0,1,65.593,13.762Z" transform="translate(-26.981 -4.859)" fill="#88ca94"></path><path id="Path_160" data-name="Path 160" d="M55.167,14.251a.456.456,0,0,1-.4-.239l-1.138-2.1a.456.456,0,0,1,.8-.435l1.138,2.1a.457.457,0,0,1-.183.619A.468.468,0,0,1,55.167,14.251Z" transform="translate(-21.93 -5.112)" fill="#88ca94"></path><path id="Path_161" data-name="Path 161" d="M69.19,16.849a.456.456,0,0,1-.311-.79l1.745-1.627a.457.457,0,0,1,.622.668L69.5,16.726A.457.457,0,0,1,69.19,16.849Z" transform="translate(-28.552 -6.452)" fill="#88ca94"></path><path id="Path_162" data-name="Path 162" d="M51.24,17.692a.455.455,0,0,1-.281-.1l-1.88-1.469a.456.456,0,1,1,.562-.719l1.88,1.469a.456.456,0,0,1-.281.816Z" transform="translate(-19.892 -6.889)" fill="#88ca94"></path><path id="Path_163" data-name="Path 163" d="M71.37,22.2a.456.456,0,0,1-.13-.894l2.289-.678a.456.456,0,1,1,.259.875L71.5,22.18A.468.468,0,0,1,71.37,22.2Z" transform="translate(-29.505 -9.203)" fill="#88ca94"></path><path id="Path_164" data-name="Path 164" d="M49.115,23.247a.427.427,0,0,1-.092-.01l-2.338-.475a.456.456,0,1,1,.182-.894l2.338.475a.456.456,0,0,1-.09.9Z" transform="translate(-18.763 -9.749)" fill="#88ca94"></path><g id="Group_53" data-name="Group 53" transform="translate(15.772 45.315)"><path id="Path_165" data-name="Path 165" d="M25.539,84.156V94.649s0,4.124,4.124,4.124H67.215s4.125,0,4.125-4.124V84.156Z" transform="translate(-25.46 -82.271)" fill="#008b99"></path><path id="Path_166" data-name="Path 166" d="M71.373,82.852V80.809H25.4v2.043H45.825V84.1a1.628,1.628,0,0,0,1.663,1.663h2.8A1.629,1.629,0,0,0,51.952,84.1V82.852Z" transform="translate(-25.399 -80.809)" fill="#96d4ca"></path></g></g></svg> 