<?xml version="1.0" encoding="UTF-8"?> <svg xmlns="http://www.w3.org/2000/svg" id="Component_11_1" data-name="Component 11 – 1" width="83.84" height="41.174" viewBox="0 0 83.84 41.174"><g id="Group_95" data-name="Group 95"><g id="Group_1" data-name="Group 1"><path id="Path_6" data-name="Path 6" d="M-131.007,54.415a19.908,19.908,0,0,0-21.712-17.752,19.647,19.647,0,0,0-17.829,21.45,19.909,19.909,0,0,0,21.712,17.753,19.968,19.968,0,0,0,5.961-1.506l5.715,3.389,0-7.1A19.485,19.485,0,0,0-131.007,54.415Zm-18.2,16.109a14.012,14.012,0,0,1-15.271-12.579,13.936,13.936,0,0,1,12.563-15.227A14.013,14.013,0,0,1-136.642,55.3,13.938,13.938,0,0,1-149.205,70.524Z" transform="translate(170.644 -36.574)" fill="#007b89"></path></g></g><g id="Group_96" data-name="Group 96" transform="translate(44.107)"><g id="Group_1-2" data-name="Group 1"><path id="Path_6-2" data-name="Path 6" d="M-131.007,54.415a19.908,19.908,0,0,0-21.712-17.752,19.647,19.647,0,0,0-17.829,21.45,19.909,19.909,0,0,0,21.712,17.753,19.968,19.968,0,0,0,5.961-1.506l5.715,3.389,0-7.1A19.485,19.485,0,0,0-131.007,54.415Zm-18.2,16.109a14.012,14.012,0,0,1-15.271-12.579,13.936,13.936,0,0,1,12.563-15.227A14.013,14.013,0,0,1-136.642,55.3,13.938,13.938,0,0,1-149.205,70.524Z" transform="translate(170.644 -36.574)" fill="#007b89"></path></g></g></svg> 